<svg width="25" height="24" viewBox="0 0 25 24" fill="none" xmlns="http://www.w3.org/2000/svg">
<g opacity="0.5">
<path d="M3.92847 18.4552C4.69879 16.4748 7.18699 15.9158 10.3876 16.1544C18.5373 16.5737 18.4589 12.204 15.3231 7.60253C14.0142 5.68355 13.2575 3.88045 13.4382 2.40116C13.5097 1.83535 13.7177 1.31726 14.0824 0.857117" stroke="white" stroke-width="1.5" stroke-miterlimit="10" stroke-linecap="round" stroke-linejoin="round"/>
<path d="M11.7672 22.982C13.0965 21.3254 12.3364 18.8918 10.5299 16.2366C6.08866 9.38889 9.913 7.27222 15.4654 7.68464C17.6639 7.84825 19.5215 7.63693 20.7247 6.84615C21.2735 6.48485 21.6859 6.00426 21.9279 5.38391" stroke="white" stroke-width="1.5" stroke-miterlimit="10" stroke-linecap="round" stroke-linejoin="round"/>
<path d="M12.2993 13.131L8.5874 10.9905" stroke="white" stroke-width="1.5" stroke-miterlimit="10" stroke-linejoin="round"/>
<path d="M9.07768 19.2019L5.40332 17.0818" stroke="white" stroke-width="1.5" stroke-miterlimit="10" stroke-linejoin="round"/>
<path d="M20.7334 6.85542L17.1238 4.77283" stroke="white" stroke-width="1.5" stroke-miterlimit="10" stroke-linejoin="round"/>
<path d="M14.7937 11.2977L10.0422 8.55383" stroke="white" stroke-width="1.5" stroke-miterlimit="10" stroke-linejoin="round"/>
</g>
</svg>
