<svg width="25" height="24" viewBox="0 0 25 24" fill="none" xmlns="http://www.w3.org/2000/svg">
<g opacity="0.5">
<path d="M4.78066 5.98972C6.19799 5.98972 7.34696 4.84075 7.34696 3.42342C7.34696 2.00609 6.19799 0.857117 4.78066 0.857117C3.36333 0.857117 2.21436 2.00609 2.21436 3.42342C2.21436 4.84075 3.36333 5.98972 4.78066 5.98972Z" stroke="white" stroke-width="1.5" stroke-miterlimit="10" stroke-linecap="round" stroke-linejoin="round"/>
<path d="M18.9599 8.37083C20.7331 8.37083 22.1706 6.93337 22.1706 5.16018C22.1706 3.38698 20.7331 1.94952 18.9599 1.94952C17.1867 1.94952 15.7493 3.38698 15.7493 5.16018C15.7493 6.93337 17.1867 8.37083 18.9599 8.37083Z" stroke="white" stroke-width="1.5" stroke-miterlimit="10" stroke-linecap="round" stroke-linejoin="round"/>
<path d="M12.2053 14.7511C14.1626 14.7511 15.7493 13.1644 15.7493 11.2071C15.7493 9.24988 14.1626 7.66321 12.2053 7.66321C10.2481 7.66321 8.66138 9.24988 8.66138 11.2071C8.66138 13.1644 10.2481 14.7511 12.2053 14.7511Z" stroke="white" stroke-width="1.5" stroke-miterlimit="10" stroke-linecap="round" stroke-linejoin="round"/>
<path d="M20.0712 18.9471C21.329 18.9471 22.3486 17.9275 22.3486 16.6697C22.3486 15.4119 21.329 14.3922 20.0712 14.3922C18.8134 14.3922 17.7937 15.4119 17.7937 16.6697C17.7937 17.9275 18.8134 18.9471 20.0712 18.9471Z" stroke="white" stroke-width="1.5" stroke-miterlimit="10" stroke-linecap="round" stroke-linejoin="round"/>
<path d="M6.72536 23.1431C8.14882 23.1431 9.30277 21.9892 9.30277 20.5657C9.30277 19.1422 8.14882 17.9883 6.72536 17.9883C5.3019 17.9883 4.14795 19.1422 4.14795 20.5657C4.14795 21.9892 5.3019 23.1431 6.72536 23.1431Z" stroke="white" stroke-width="1.5" stroke-miterlimit="10" stroke-linecap="round" stroke-linejoin="round"/>
<path d="M14.9124 8.71953L16.5492 7.27899" stroke="white" stroke-width="1.5" stroke-miterlimit="10" stroke-linecap="round" stroke-linejoin="round"/>
<path d="M6.46484 5.45587L9.66809 8.72948" stroke="white" stroke-width="1.5" stroke-miterlimit="10" stroke-linecap="round" stroke-linejoin="round"/>
<path d="M18.3534 15.1733L15.1687 13.1551" stroke="white" stroke-width="1.5" stroke-miterlimit="10" stroke-linecap="round" stroke-linejoin="round"/>
<path d="M7.87622 18.2881L10.3055 14.1998" stroke="white" stroke-width="1.5" stroke-miterlimit="10" stroke-linecap="round" stroke-linejoin="round"/>
</g>
</svg>
