<svg width="25" height="24" viewBox="0 0 25 24" fill="none" xmlns="http://www.w3.org/2000/svg">
<g opacity="0.5">
<path d="M17.5938 6.41484C17.5938 6.97174 17.1424 7.42319 16.5855 7.42319C16.0286 7.42319 15.5771 6.97174 15.5771 6.41484C15.5771 5.85795 16.0286 5.40649 16.5855 5.40649C17.1424 5.40649 17.5938 5.85795 17.5938 6.41484Z" stroke="white" stroke-width="1.5" stroke-miterlimit="10" stroke-linejoin="round"/>
<path d="M13.6569 17.231C18.932 13.8888 21.5176 7.35012 19.7758 0.857117C13.2828 2.59468 8.90982 8.10667 8.65625 14.3461L13.6569 17.231Z" stroke="white" stroke-width="1.5" stroke-miterlimit="10" stroke-linejoin="round"/>
<path d="M13.6553 17.231C14.5698 18.7108 14.815 20.5648 14.4077 22.2857C16.8976 20.598 18.3276 17.1562 17.1553 14.0801" stroke="white" stroke-width="1.5" stroke-miterlimit="10" stroke-linejoin="round"/>
<path d="M8.68415 14.3632C6.94659 14.3134 5.21734 15.0283 3.92871 16.238C4.14487 13.2367 6.41035 10.2812 9.66101 9.7533" stroke="white" stroke-width="1.5" stroke-miterlimit="10" stroke-linejoin="round"/>
<path d="M12.9327 16.8191C12.2219 18.9349 10.4012 20.5977 8.03595 21.1921C7.3667 18.8477 7.89877 16.4367 9.37446 14.7656" stroke="white" stroke-width="1.5" stroke-miterlimit="10" stroke-linejoin="round"/>
</g>
</svg>
