<svg width="401" height="320" viewBox="0 0 401 320" fill="none" xmlns="http://www.w3.org/2000/svg">
<g clip-path="url(#clip0_1_22348)">
<path d="M141.685 189.352C140.765 183.573 149.98 181.309 152.384 184.828C151.614 179.306 155.948 172.061 163.389 171.441C177.44 170.092 173.368 180.823 180.123 180.98C186.292 180.862 181.696 171.692 195.741 176.289C199.088 177.315 200.8 181.175 203.171 185.944C207.979 180.505 210.924 184.047 211.811 189.358C188.559 192.76 164.936 192.759 141.685 189.352Z" fill="#D8DAF2"/>
<path d="M306.827 95.7549C306.175 91.1977 312.673 89.4184 314.363 92.1906C313.805 87.8398 316.878 82.1504 322.127 81.6484C332.028 80.5886 329.161 89.0335 333.919 89.1562C338.27 89.0614 335.035 81.8492 344.919 85.4637C347.284 86.2669 348.483 89.3068 350.156 93.0608C353.548 88.7825 355.623 91.5715 356.247 95.7549C339.883 98.4323 323.192 98.4323 306.827 95.7549Z" fill="#D8DAF2"/>
<path d="M281.368 282.124C280.458 289.213 284.329 297.932 298.408 299.661C314.539 299.94 320.508 289.832 320.028 282.124H281.368Z" fill="#015288"/>
<path d="M319.265 144.74H282.027V278.515H319.265V144.74Z" fill="#FDAC19"/>
<path d="M319.622 144.946L300.646 110.313L281.676 144.946H319.622Z" fill="#FCD4CA"/>
<g style="mix-blend-mode:multiply">
<path d="M307.864 123.477L300.646 110.313L293.434 123.477H307.864Z" fill="#03476D"/>
</g>
<path d="M309.982 145.186H308.57V278.515H309.982V145.186Z" fill="white"/>
<path d="M292.724 145.186H291.312V278.515H292.724V145.186Z" fill="white"/>
<path d="M320.787 277.143H280.504V282.436H320.787V277.143Z" fill="#02797D"/>
<path d="M393.242 256.934C370.596 252.834 339.633 266.768 317.784 283.256C295.367 299.493 282.086 318.28 281.812 317.979C294.569 319.986 307.158 322.941 319.474 326.82C320.166 319.01 320.666 311.168 320.975 303.292C328.732 307.353 336.251 311.742 343.532 316.461C348.619 313.951 353.825 311.577 359.15 309.338C356.595 304.53 353.873 299.75 350.984 294.998C356.908 298.608 362.69 302.405 368.331 306.388C367.779 306.081 409.122 259.639 393.242 256.934Z" fill="#02797D"/>
<g style="mix-blend-mode:multiply">
<path d="M294.403 320.276C303.327 315.864 314.522 306.41 324.88 293.926C331.802 285.521 337.107 276.975 339.985 269.183C305.754 286.692 281.663 318.073 281.813 317.978C286.023 318.644 290.219 319.41 294.403 320.276Z" fill="#02797D"/>
</g>
<path d="M331.963 184.31C333.982 197.987 335.451 211.621 336.369 225.213C329.821 226.328 323.371 227.609 317.02 229.056C322.505 231.001 327.93 233.077 333.296 235.286C333.586 235.23 332.482 254.708 324.193 274.064C316.133 293.648 300.888 313.109 278.22 318.391C256.053 324.404 265.43 275.687 265.458 275.492C272.385 276.351 279.265 277.453 286.096 278.799C286.397 278.599 266.149 263.421 267.466 259.015C270.812 249.409 284.952 229.535 300.442 213.365C315.609 196.988 332.074 184.31 331.963 184.31Z" fill="#02797D"/>
<path d="M273.808 317.237L273.289 317.025C277.751 306.142 281.728 294.429 285.962 282.023C296.27 251.797 306.935 220.538 325.515 196.949L325.95 197.295C307.431 220.806 296.783 252.02 286.486 282.202C282.253 294.629 278.253 306.354 273.808 317.237Z" fill="#096666"/>
<path d="M136.23 321.699L136.543 265.602C136.571 264.611 136.207 263.649 135.529 262.926C134.85 262.203 133.914 261.777 132.923 261.742L76.1676 261.374C75.0521 261.292 73.9721 260.945 73.0169 260.363C72.0616 259.781 71.2583 258.981 70.6733 258.027L68.9163 254.926C68.3315 253.974 67.5291 253.174 66.5749 252.592C65.6207 252.01 64.5421 251.663 63.4277 251.579L46.4151 251.468C45.4238 251.493 44.4825 251.908 43.7961 252.624C43.1098 253.339 42.7339 254.297 42.7504 255.289L42.3711 321.666L136.23 321.699Z" fill="#FDAC19"/>
<path d="M122.085 268.887H54.8047V303.799H122.085V268.887Z" fill="#EFEFEF"/>
<path d="M75.4474 289.749L61.168 289.849V275.179L75.0402 276.094L75.4474 289.749Z" fill="#EA7052"/>
<path d="M67.571 288.092H67.4037C66.0204 287.93 64.9717 285.861 64.1016 281.611L64.6594 281.499C65.6466 286.335 66.7343 287.451 67.4762 287.54C69.289 287.752 71.6875 282.587 73.7904 278.03C74.3482 276.864 74.906 275.659 75.4247 274.56L75.9267 274.805C75.3689 275.921 74.8111 277.104 74.298 278.264C71.9497 283.306 69.7408 288.092 67.571 288.092Z" fill="white"/>
<path d="M85.4449 276.139C85.3335 276.147 85.2216 276.147 85.1102 276.139C84.6028 276.086 84.1158 275.911 83.6904 275.629C83.2651 275.348 82.914 274.967 82.6671 274.521C80.8599 271.23 84.0058 264.102 85.3445 261.056C85.4672 260.783 85.5732 260.548 85.6513 260.364C85.813 259.979 85.9859 259.489 86.2091 258.914C87.3246 255.763 89.1988 250.486 93.5719 251.897C98.3912 253.448 97.733 256.638 97.1529 259.455C96.988 260.162 96.8725 260.88 96.8071 261.603L96.2493 261.569C96.3164 260.818 96.4357 260.073 96.6063 259.338C97.1641 256.627 97.7218 253.821 93.399 252.421C89.5391 251.183 87.8211 255.947 86.7055 259.115C86.4991 259.673 86.3206 260.191 86.1477 260.593L85.8409 261.296C84.6417 264.007 81.4678 271.213 83.1412 274.264C83.3457 274.636 83.6382 274.952 83.9931 275.185C84.3481 275.417 84.7546 275.559 85.1771 275.598C85.4217 275.631 85.6706 275.612 85.9072 275.542C86.1438 275.472 86.3627 275.352 86.5493 275.19C88.9869 273.277 90.1638 265.842 90.3813 263.393L90.9391 263.438C90.6993 266.137 89.5056 273.584 86.9007 275.625C86.4878 275.957 85.9744 276.138 85.4449 276.139Z" fill="black"/>
<path d="M276.321 321.688L300.752 169.523L271.379 157.787L244.945 321.688H276.321Z" fill="white"/>
<path d="M250.434 320.834L249.938 320.728C259.096 277.388 265.762 224.136 272.21 181.281C273.192 174.751 274.177 168.221 275.166 161.691L275.668 161.769C274.683 168.295 273.697 174.825 272.712 181.359C266.264 224.219 259.593 277.477 250.434 320.834ZM256.843 320.672L256.335 320.583C264.256 282.854 270.113 235.135 275.774 197.641C277.414 186.775 279.121 175.547 280.833 164.486L281.335 164.564C279.612 175.619 277.916 186.875 276.271 197.713C270.62 235.202 264.769 282.927 256.843 320.672ZM261.913 320.851L261.417 320.75C271.072 275.146 279.69 218.608 287.761 166.287L288.258 166.365C280.181 218.692 271.563 275.246 261.913 320.851ZM267.262 320.723L266.766 320.611C276.695 275.352 285.34 219.316 293.149 167.704L293.652 167.777C285.82 219.406 277.191 275.447 267.262 320.723ZM272.918 320.695L272.422 320.583C272.706 319.278 272.98 317.973 273.275 316.679C277.537 296.832 281.592 266.344 286.043 239.932C289.948 216.784 293.573 193.212 297.087 170.421L297.589 170.493C294.075 193.29 290.439 216.862 286.54 240.016C282.077 266.438 278.033 296.911 273.772 316.79L272.918 320.695Z" fill="#D8DAF2"/>
<path d="M246.647 321.688L271.379 157.787L196.831 151.556L169.828 321.688H246.647Z" fill="#0086CA"/>
<path d="M228.686 321.688L233.427 209.812L210.508 321.688H228.686Z" fill="#015288"/>
<path d="M213.59 321.688L233.431 209.812L203.745 201.813L182.359 321.688H213.59Z" fill="white"/>
<path d="M188.1 320.695L187.609 320.567C194.777 292.437 199.546 254.19 204.153 225.826C205.269 218.865 206.457 211.664 207.645 204.585L208.142 204.669C206.954 211.742 205.788 218.949 204.655 225.91C200.043 254.273 195.279 292.538 188.1 320.695ZM194.42 320.857L193.929 320.74C201.599 288.388 207.026 245.957 212.275 213.571L213.385 206.504L213.887 206.588L212.738 213.655C207.495 246.046 202.067 288.483 194.42 320.857ZM199.485 320.862L198.988 320.74C208.398 283.29 215.064 238.187 220.346 207.692L220.848 207.782C215.566 238.254 208.923 283.396 199.485 320.862ZM204.778 320.89L204.287 320.762C212.392 289.977 218.232 249.454 223.871 218.915L225.779 208.613L226.281 208.708C225.641 212.136 225.005 215.568 224.373 219.004C218.723 249.554 212.883 290.089 204.778 320.89ZM210.429 320.728L209.938 320.595C216.213 297.418 220.396 264.174 224.44 240.669C226.147 230.757 227.91 220.51 229.801 210.509L230.297 210.604C228.406 220.6 226.644 230.846 224.937 240.758C220.893 264.275 216.732 297.53 210.429 320.728Z" fill="#D8DAF2"/>
<path d="M183.999 321.688L203.744 201.813L129.056 198.857L107.57 321.688H183.999Z" fill="#EA7052"/>
<path d="M129.922 245.137L136.548 220.538L184.329 222.423L181.841 250.904L129.922 245.137Z" fill="white"/>
<path d="M136.615 227.321L136.42 228.035C136.23 228.755 135.968 229.708 135.968 229.708L136.459 229.837L137.123 227.388L136.632 227.254L136.615 227.321ZM135.293 232.224L135.143 232.782V232.821V232.849L134.663 234.628L135.154 234.762L135.812 232.313L135.321 232.179L135.293 232.224ZM133.977 237.121L133.375 239.353V239.397L133.347 239.503L133.837 239.637L134.496 237.188L134.01 237.055L133.977 237.121ZM132.655 242.019L132.242 243.558L132.75 243.614L133.179 243.659L133.235 243.157L132.884 243.118L133.146 242.153L132.655 242.019ZM135.756 243.436L135.7 243.943L138.222 244.222L138.277 243.715L135.756 243.436ZM140.776 243.993L140.721 244.495L143.242 244.774L143.303 244.272L140.776 243.993ZM145.796 244.551L145.746 245.059L146.538 245.148H146.695L148.267 245.327L148.323 244.819L145.796 244.54V244.551ZM150.817 245.109L150.766 245.611L151.653 245.711L153.265 245.89L153.321 245.388L150.794 245.109H150.817ZM155.865 245.667L155.809 246.169L158.33 246.453L158.386 245.946L155.865 245.667ZM160.885 246.225L160.829 246.727L163.35 247.005L163.406 246.503L160.885 246.225ZM165.905 246.782L165.849 247.284L167.31 247.446H167.344L168.37 247.563L168.426 247.056L165.905 246.777V246.782ZM170.925 247.34L170.869 247.848L172.95 248.076H173.223L173.547 248.11L173.602 247.608L171.081 247.323L170.925 247.34ZM175.945 247.898L175.889 248.4L178.41 248.684L178.466 248.177L175.945 247.898ZM179.822 245.388L179.604 247.915L180.106 247.959L180.324 245.483L179.816 245.438L179.822 245.388ZM180.262 240.334L180.045 242.856L180.547 242.906C180.547 242.906 180.547 242.588 180.614 242.186L180.77 240.418L180.262 240.379V240.334ZM180.703 235.275L180.485 237.802L180.987 237.847C180.987 237.847 181.071 236.932 181.132 236.207L181.205 235.353L180.697 235.309L180.703 235.275ZM181.144 230.222L180.926 232.748L181.428 232.793L181.651 230.266L181.144 230.222ZM181.584 225.168L181.367 227.695L181.874 227.739L182.031 225.921C182.064 225.536 182.092 225.241 182.092 225.241L181.584 225.196V225.168ZM178.176 223.991V224.499L180.709 224.599V224.097L179.314 224.041L178.198 223.991H178.176ZM173.111 223.79V224.303L175.644 224.398V223.891L173.111 223.79ZM168.036 223.595V224.103L170.568 224.203V223.695L168.03 223.595H168.036ZM162.965 223.394V223.902L165.498 224.002V223.495L164.27 223.444H164.243L162.96 223.394H162.965ZM157.901 223.193V223.701L160.438 223.801V223.294L157.906 223.193H157.901ZM152.83 222.993V223.5L155.368 223.601V223.093L152.836 222.993H152.83ZM147.76 222.797V223.305L150.298 223.4V222.892L149.221 222.853L147.777 222.797H147.76ZM142.69 222.597V223.104L145.228 223.205V222.697L142.695 222.597H142.69ZM137.775 222.401L137.117 224.85L137.608 224.984L138.166 222.926L140.14 223.004V222.496L137.764 222.401H137.775Z" fill="#015288"/>
<path d="M229.22 169.88C229.11 169.888 229 169.888 228.891 169.88C228.383 169.827 227.895 169.653 227.468 169.371C227.042 169.089 226.69 168.709 226.442 168.262C224.641 164.971 227.781 157.843 229.125 154.797L229.426 154.105C229.588 153.721 229.767 153.224 229.984 152.655C231.1 149.504 232.968 144.227 237.347 145.638C242.166 147.189 241.508 150.379 240.928 153.196C240.765 153.901 240.651 154.617 240.588 155.338L240.03 155.305C240.092 154.553 240.21 153.808 240.381 153.073C240.939 150.357 241.497 147.557 237.18 146.157C233.32 144.913 231.63 149.677 230.486 152.85C230.28 153.408 230.101 153.927 229.928 154.329L229.622 155.031C228.428 157.742 225.248 164.949 226.922 168C227.128 168.372 227.422 168.687 227.777 168.919C228.133 169.152 228.54 169.294 228.963 169.333C229.208 169.366 229.458 169.347 229.694 169.275C229.931 169.204 230.15 169.083 230.336 168.92C232.773 167.013 233.944 159.577 234.162 157.123L234.72 157.173C234.48 159.873 233.286 167.319 230.676 169.361C230.263 169.693 229.75 169.876 229.22 169.88Z" fill="black"/>
<path fill-rule="evenodd" clip-rule="evenodd" d="M210.04 349.633C210.146 354.151 209.102 352.556 208.723 349.343C208.556 347.926 206.386 351.184 206.386 351.184C204.155 351.379 205.427 346.872 204.629 347.463C202.872 352.355 202.236 350.007 202.258 348.657C204.144 338.059 210.212 317.108 210.04 349.633Z" fill="#02797D"/>
<path d="M108.081 194.952L109.358 196.592C111.031 198.723 112.733 200.926 114.551 203.046L115.109 202.566C113.302 200.463 111.589 198.266 109.938 196.14L108.655 194.5L108.081 194.952ZM96.8078 199.738L96.4229 201.774C95.9209 204.429 95.4022 207.173 95.0117 209.946L95.7368 210.046C96.1273 207.296 96.646 204.557 97.1481 201.913L97.5329 199.872L96.8078 199.738ZM115.667 180.02L115.834 180.729L117.853 180.26C120.475 179.646 123.186 179.005 125.924 178.503L125.813 177.789C123.057 178.302 120.341 178.938 117.708 179.557L115.667 180.02Z" fill="#FDAC19"/>
<path d="M48.0448 325.386L5.3125 264.135L5.40732 263.979L70.0607 162.383L70.5181 162.667L5.95954 264.118L48.4854 325.074L48.0448 325.386Z" fill="#FDAC19"/>
<path d="M2.01011 264.085C2.1886 267.013 4.5369 269.155 6.99675 269.044C9.4566 268.932 11.4089 266.344 11.236 263.415C11.063 260.487 8.8263 258.328 6.36645 258.44C3.9066 258.551 1.83719 261.156 2.01011 264.085ZM100.817 325.542L39.4601 325.414L38.3055 320.131L100.778 320.249C100.995 320.249 100.817 325.542 100.817 325.542Z" fill="#0086CA"/>
<path d="M79.8759 147.295L66.7344 161.044L85.5932 209.416L120.026 170.064L79.8759 147.295Z" fill="#0086CA"/>
<path d="M68.8657 168.915C63.5834 164.118 61.4359 153.508 65.3125 148.31C69.998 142.035 78.8278 144.171 86.8265 148.667C87.1277 148.834 87.3843 149.007 87.6967 149.186C80.4398 155.645 75.4811 161.998 68.8657 168.915Z" fill="#015288"/>
<path d="M85.3308 147.568L67.0898 167.273L67.4869 167.641L85.7278 147.936L85.3308 147.568Z" fill="white"/>
<path d="M83.6477 204.256L83.2461 203.899L115.168 167.47L115.576 167.827L83.6477 204.256Z" fill="white"/>
<path opacity="0.7" d="M80.3198 321.247C80.1301 317.342 82.4171 315.083 85.8977 314.554C90.1313 313.934 93.7067 315.513 95.051 320.343C95.1012 320.522 95.1458 320.7 95.1905 320.901C89.9138 320.583 85.5407 321.141 80.3198 321.247ZM223.861 130.834L223.432 130.477C224.473 129.217 225.176 127.712 225.473 126.104L226.031 126.21C225.712 127.911 224.965 129.502 223.861 130.834ZM219.209 130.628C217.98 129.408 217.09 127.89 216.627 126.221L217.185 126.048C217.617 127.624 218.451 129.059 219.605 130.215L219.209 130.628ZM215.673 121.24C215.584 120.259 215.539 119.227 215.539 118.167C215.539 117.52 215.539 116.85 215.589 116.187L216.147 116.215C216.114 116.867 216.097 117.525 216.097 118.167C216.097 119.21 216.142 120.225 216.225 121.19L215.673 121.24ZM225.54 121.201C225.295 119.565 224.89 117.956 224.33 116.399L224.854 116.215C225.429 117.806 225.843 119.45 226.093 121.123L225.54 121.201ZM55.0352 115.066V114.837C55.0359 113.226 55.1515 111.617 55.381 110.023L55.9388 110.101C55.7139 111.67 55.6002 113.252 55.5985 114.837V115.06L55.0352 115.066ZM117.201 113.643L117.123 113.085C117.441 113.041 117.759 112.985 118.088 112.924C119.379 112.671 120.625 112.227 121.786 111.607L122.054 112.098C120.842 112.745 119.541 113.208 118.194 113.47C117.859 113.571 117.524 113.643 117.201 113.671V113.643ZM112.114 113.375C110.444 112.921 108.924 112.034 107.707 110.804L108.103 110.408C109.25 111.57 110.684 112.407 112.259 112.834L112.114 113.375ZM222.35 111.797C221.636 110.386 220.799 108.93 219.868 107.463L220.336 107.167C221.279 108.645 222.121 110.118 222.846 111.546L222.35 111.797ZM216.677 111.239L216.119 111.15C216.387 109.51 216.738 107.848 217.174 106.213L217.731 106.358C217.291 107.987 216.939 109.627 216.677 111.25V111.239ZM126.047 108.975L125.635 108.601C126.735 107.371 127.661 105.995 128.385 104.512L128.887 104.758C128.14 106.292 127.185 107.714 126.047 108.986V108.975ZM105.013 106.492C104.43 104.889 104.099 103.205 104.031 101.5L104.589 101.472C104.656 103.12 104.976 104.747 105.537 106.297L105.013 106.492ZM56.9986 105.276L56.4408 105.115C56.9238 103.499 57.5164 101.919 58.2146 100.385L58.7221 100.619C58.0409 102.13 57.465 103.686 56.9986 105.276ZM300.959 103.648C300.741 102.013 300.305 100.415 299.665 98.8952L300.178 98.6833C300.844 100.255 301.294 101.91 301.517 103.603L300.959 103.648ZM217.028 103.38C216.058 102.086 215.009 100.769 213.899 99.4753L214.323 99.1128C215.439 100.418 216.499 101.74 217.475 103.045L217.028 103.38ZM219.26 101.617L218.735 101.416C219.338 99.8323 220.013 98.2761 220.755 96.7924L221.257 97.0434C220.504 98.5311 219.832 100.058 219.243 101.617H219.26ZM130.571 99.9829L130.013 99.8602C130.386 98.2462 130.587 96.597 130.61 94.9405H131.168C131.153 96.6377 130.954 98.3283 130.577 99.9829H130.571ZM104.991 96.5637L104.433 96.4521C104.506 96.1119 104.584 95.7716 104.673 95.4314C105.016 94.1315 105.467 92.8627 106.023 91.6384L106.53 91.8671C105.989 93.063 105.549 94.3018 105.214 95.5708C105.141 95.8999 105.063 96.2346 104.996 96.5637H104.991ZM61.1095 96.2346L60.6354 95.939C61.5248 94.5098 62.499 93.1352 63.5526 91.8225L63.9877 92.1683C62.9501 93.4667 61.9891 94.8244 61.1095 96.2346ZM210.525 95.7939C209.381 94.6058 208.182 93.4177 206.96 92.2743L207.34 91.8671C208.567 93.0217 209.777 94.2098 210.926 95.4091L210.525 95.7939ZM297.272 94.578C296.333 93.2103 295.287 91.9195 294.143 90.718L294.55 90.3387C295.713 91.5545 296.778 92.8601 297.735 94.2433L297.272 94.578ZM223.722 92.7484L223.253 92.4416C224.175 91.0312 225.185 89.6805 226.277 88.3976L226.701 88.7602C225.623 90.0141 224.628 91.3371 223.722 92.7205V92.7484ZM130.114 90.0599C130.013 89.6359 129.896 89.212 129.768 88.8048C129.402 87.6521 128.94 86.5325 128.385 85.4581L128.875 85.2015C129.452 86.31 129.93 87.4673 130.303 88.6598C130.432 89.0837 130.554 89.5132 130.655 89.9539L130.114 90.0599ZM203.218 88.9443C201.946 87.8733 200.635 86.8135 199.313 85.8039L199.648 85.3633C200.981 86.3784 202.303 87.4382 203.552 88.5204L203.218 88.9443ZM67.301 88.4757L66.9049 88.0853C68.0707 86.9083 69.3257 85.7649 70.631 84.6883L70.9879 85.1178C69.6939 86.1553 68.4556 87.2876 67.301 88.4478V88.4757ZM109.024 87.6112L108.572 87.2876C109.553 85.9128 110.644 84.62 111.835 83.4222L112.231 83.8182C111.062 84.9843 109.989 86.2435 109.024 87.5833V87.6112ZM290.484 87.3378C289.192 86.2903 287.842 85.3164 286.44 84.4206L286.741 83.9521C288.161 84.859 289.528 85.846 290.835 86.9083L290.484 87.3378ZM230.198 85.1959L229.83 84.7776C231.099 83.6636 232.455 82.6527 233.885 81.7544L234.181 82.2285C232.775 83.1081 231.443 84.1006 230.198 85.1959ZM195.258 82.842C193.88 81.8938 192.469 80.9735 191.058 80.1089L191.353 79.6348C192.765 80.5049 194.187 81.4308 195.57 82.3847L195.258 82.842ZM74.9817 82.1002L74.6694 81.6372C76.0527 80.7001 77.4974 79.8132 78.9699 78.9989L79.2377 79.4842C77.7818 80.2874 76.3483 81.1687 74.9817 82.0946V82.1002ZM282.111 81.9161C280.644 81.1743 279.11 80.4826 277.554 79.8746L277.761 79.3559C279.328 79.975 280.879 80.6667 282.362 81.4197L282.111 81.9161ZM125.59 81.3583C124.495 80.1219 123.262 79.0158 121.914 78.0618L122.232 77.6044C123.617 78.5837 124.884 79.7199 126.008 80.9902L125.59 81.3583ZM115.974 80.5272L115.639 80.0866C116.974 79.0631 118.363 78.1117 119.8 77.2363L120.09 77.716C118.669 78.5705 117.294 79.5015 115.974 80.5049V80.5272ZM238.593 79.9694L238.375 79.4563C239.927 78.802 241.511 78.2285 243.122 77.7383L243.284 78.2682C241.7 78.7256 240.121 79.3001 238.593 79.9415V79.9694ZM272.83 78.2961C271.235 77.8331 269.606 77.4371 267.977 77.1247L268.083 76.5669C269.756 76.8849 271.374 77.2865 272.986 77.7494L272.83 78.2961ZM186.724 77.5877C185.246 76.7845 183.745 76.0203 182.261 75.3175L182.501 74.8099C183.996 75.5183 185.502 76.288 186.992 77.0968L186.724 77.5877ZM83.7111 77.253L83.488 76.7454C85.0275 76.0593 86.6061 75.4458 88.1846 74.9103L88.3631 75.4346C86.8013 75.9645 85.2395 76.5781 83.7111 77.253ZM248.125 77.0299L248.019 76.4721C249.679 76.1467 251.355 75.9066 253.039 75.7525L253.09 76.3103C251.405 76.4721 249.743 76.7119 248.125 77.0299ZM263.029 76.355C261.356 76.1932 259.683 76.1039 258.043 76.0984V75.5406C259.716 75.5406 261.39 75.6354 263.063 75.8027L263.029 76.355ZM117.597 75.5908C116.081 74.9064 114.512 74.3468 112.906 73.9174L113.045 73.3596C114.682 73.7859 116.281 74.3456 117.826 75.033L117.597 75.5908ZM124.469 75.2952L124.218 74.7931C125.69 74.068 127.241 73.3819 128.831 72.7461L129.037 73.2648C127.486 73.8951 125.93 74.5979 124.474 75.2952H124.469ZM93.1657 74.0401L93.0318 73.4823C94.7052 73.0919 96.3785 72.7795 97.9961 72.562L98.0686 73.1198C96.451 73.3596 94.8 73.6664 93.1657 74.0401ZM177.688 73.3038C176.126 72.6735 174.547 72.0934 172.991 71.5803L173.169 71.0225C174.737 71.5412 176.327 72.1381 177.894 72.7572L177.688 73.3038ZM108.02 73.0305C106.368 72.8409 104.706 72.7552 103.044 72.7739V72.2162C104.731 72.1966 106.417 72.2842 108.092 72.4783L108.02 73.0305ZM133.756 71.5747L133.589 71.0169C135.173 70.5093 136.802 70.0463 138.436 69.6336L138.57 70.1914C136.969 70.6041 135.329 71.0671 133.75 71.5747H133.756ZM168.205 70.1746C166.576 69.7563 164.931 69.4049 163.324 69.1204L163.425 68.5626C165.042 68.8527 166.699 69.2097 168.345 69.628L168.205 70.1746ZM143.467 69.1372L143.367 68.5794C144.17 68.4343 144.968 68.3005 145.749 68.1889C146.529 68.0774 147.489 67.9546 148.365 67.871L148.415 68.4288C147.55 68.5069 146.68 68.6128 145.832 68.7355C144.984 68.8583 144.254 69.02 143.456 69.1372H143.467ZM158.371 68.4622C156.698 68.3116 155.025 68.228 153.39 68.228V67.6702C155.064 67.6702 156.737 67.7538 158.41 67.91L158.371 68.4622Z" fill="#313848"/>
<path d="M159.865 33.6507L159.497 31.1295C159.017 27.8664 158.521 24.4862 158.192 21.0892L159.084 21C159.413 24.3969 159.91 27.7437 160.395 31.0012L160.763 33.5224L159.865 33.6507ZM146.088 39.5688L143.968 38.1855C141.179 36.3894 138.329 34.5264 135.551 32.5239L136.075 31.7988C138.864 33.7845 141.692 35.642 144.442 37.4325L146.567 38.8214L146.088 39.5688ZM130.798 55.8953L130.637 55.014C133.983 54.3893 137.269 53.6084 140.465 52.8498L142.964 52.2864L143.17 53.1622L140.677 53.72C137.47 54.4841 134.179 55.2706 130.798 55.8953ZM179.466 39.5688L178.975 38.8214L181.1 37.4325C183.861 35.642 186.717 33.7845 189.467 31.7988L189.991 32.5239C187.225 34.5264 184.38 36.3894 181.591 38.1855L179.466 39.5688ZM194.755 55.8953C191.408 55.2706 188.061 54.4841 184.882 53.72L182.383 53.1622L182.589 52.2864L185.088 52.8442C188.284 53.6028 191.586 54.3837 194.922 55.0084L194.755 55.8953Z" fill="#FDAC19"/>
<path fill-rule="evenodd" clip-rule="evenodd" d="M159.117 88.2025C159.117 88.3977 160.233 90.8743 160.233 91.0696H165.638C165.638 90.8743 166.452 88.3977 166.43 88.2025H159.117Z" fill="#015288"/>
<path fill-rule="evenodd" clip-rule="evenodd" d="M155.88 71.2513C156.438 72.6178 156.934 79.3838 157.42 80.7727H168.921C169.479 79.3783 170.009 72.6067 170.595 71.2401C171.9 69.3492 177.93 62.3155 179.971 55.767C182.721 47.5229 175.018 35.8874 163.076 35.8706C151.178 35.7647 142.778 46.5969 145.522 54.8634C147.591 61.7298 153.331 68.1778 155.88 71.2513Z" fill="#FDAC19"/>
<path d="M165.268 79.8914C164.393 75.0999 164.817 65.0207 166.562 57.7638C166.327 57.7921 166.089 57.7751 165.86 57.7136C164.744 57.4236 163.969 56.1797 163.4 54.7685C162.58 56.6204 161.576 57.6411 160.404 57.8085C159.938 57.868 159.465 57.8026 159.032 57.6188C160.064 64.5577 161.18 74.6258 160.895 79.8467L160.187 79.8077C160.455 74.8601 159.356 64.4629 158.246 57.1893C156.996 56.1993 156 54.9259 155.34 53.4744C154.592 51.9517 153.962 49.9325 154.654 49.2631L154.698 49.2241C154.927 49.0321 155.201 48.9028 155.494 48.849C155.788 48.7952 156.09 48.8187 156.372 48.9173C157.599 49.4249 158.011 51.6002 158.229 52.766V52.8162C158.43 53.8816 158.659 55.2315 158.898 56.771C159.315 57.035 159.808 57.1509 160.298 57.1001C161.102 56.9885 162.117 56.2411 163.037 53.7533C162.789 52.9656 162.584 52.1649 162.424 51.3548C161.966 49.0512 162.591 47.2606 163.45 46.6805C163.591 46.5658 163.765 46.4978 163.947 46.4858C164.129 46.4738 164.31 46.5185 164.465 46.6136C165.023 46.9594 165.162 47.8965 164.917 49.2575C164.669 50.7842 164.296 52.2879 163.801 53.7533C164.426 55.6108 165.218 56.7821 166.033 56.9997C166.264 57.069 166.51 57.069 166.741 56.9997C167.181 55.1619 167.859 53.3897 168.76 51.7285L168.894 51.4998C169.34 50.7301 169.759 50.005 170.344 50.0608C170.841 50.111 171.047 50.7134 171.12 50.9086C171.677 52.582 169.446 55.5884 168.821 56.308C168.423 56.7946 167.934 57.1999 167.382 57.5017C165.609 64.6246 165.101 74.9438 165.982 79.7519L165.268 79.8914ZM170.255 50.797C169.953 51.1151 169.699 51.4759 169.502 51.868L169.368 52.1023C168.614 53.4825 168.035 54.9515 167.645 56.4753C167.871 56.2844 168.082 56.0755 168.275 55.8506C169.245 54.735 170.796 52.2138 170.433 51.154C170.399 51.0241 170.338 50.9026 170.255 50.797ZM155.133 49.7874C154.955 50.0329 155.078 51.3158 155.981 53.1342C156.506 54.2436 157.217 55.2548 158.084 56.1239C157.9 54.9414 157.71 53.8593 157.526 52.9278V52.8999C157.359 52.013 156.968 49.938 156.093 49.5811C155.928 49.5316 155.754 49.5245 155.586 49.5606C155.419 49.5967 155.263 49.6747 155.133 49.7874ZM164.03 47.2216C163.966 47.2286 163.905 47.2516 163.852 47.2885C163.294 47.6678 162.708 49.1404 163.132 51.2377C163.227 51.7062 163.327 52.158 163.439 52.5764C163.763 51.4502 164.023 50.3068 164.22 49.1516C164.454 47.8575 164.22 47.3332 164.086 47.2383C164.069 47.227 164.05 47.2212 164.03 47.2216Z" fill="#015288"/>
<path fill-rule="evenodd" clip-rule="evenodd" d="M155.457 79.2389L156.846 80.7561C155.541 80.6334 155.474 82.7139 157.119 82.8143C155.446 82.7474 155.373 84.8893 157.008 84.9116C155.373 84.828 155.306 87.2376 156.846 87.3771L155.82 88.4926C157.934 89.4855 169.636 89.4241 169.881 88.3922L168.95 87.2767C170.59 87.1316 170.155 84.9562 168.788 85.0455C169.084 85.0455 169.368 84.928 169.577 84.7188C169.786 84.5095 169.904 84.2258 169.904 83.9299C169.904 83.634 169.786 83.3503 169.577 83.1411C169.368 82.9319 169.084 82.8143 168.788 82.8143C169.044 82.8112 169.289 82.7139 169.477 82.5411C169.665 82.3683 169.783 82.1322 169.808 81.8779C169.833 81.6237 169.763 81.3692 169.612 81.1632C169.461 80.9573 169.239 80.8143 168.989 80.7617L170.105 79.2222L155.457 79.2389Z" fill="#0086CA"/>
<path d="M92.1218 109.404H18.9844V122.049H92.1218V109.404Z" fill="#EA7052"/>
<path d="M77.0669 120.443C68.2259 120.259 21.5444 120.119 21.0703 120.119H20.7747L19.832 111.412H20.1723C28.3049 110.854 38.3897 110.587 50.1479 110.587C64.7899 110.587 76.9218 111.027 77.0445 111.033H77.2956L77.3513 111.273C77.5354 112.003 79.0916 118.463 77.8645 120.041C77.7704 120.164 77.6498 120.264 77.5116 120.333C77.3735 120.403 77.2215 120.44 77.0669 120.443ZM21.3436 119.456C25.3542 119.456 68.5829 119.601 77.0613 119.785C77.1197 119.785 77.1772 119.771 77.2289 119.744C77.2805 119.717 77.3245 119.677 77.3569 119.628C78.1155 118.663 77.4294 114.335 76.7991 111.663C74.9975 111.602 63.6464 111.228 50.1702 111.228C38.5905 111.228 28.634 111.496 20.6074 112.026L21.3436 119.456ZM85.1771 113.839C84.8576 113.431 84.3925 113.163 83.8794 113.09C83.3663 113.018 82.8453 113.148 82.4257 113.452C82.0062 113.756 81.7208 114.211 81.6296 114.721C81.5383 115.231 81.6483 115.756 81.9364 116.187C82.2553 116.59 82.7037 116.871 83.2058 116.982C83.7079 117.093 84.2328 117.027 84.6918 116.795L86.566 119.422L87.0234 119.093L84.9428 116.605C85.2766 116.232 85.48 115.76 85.5222 115.261C85.5645 114.762 85.4434 114.263 85.1771 113.839ZM84.4018 116.176C84.1717 116.344 83.8968 116.44 83.612 116.452C83.3272 116.464 83.0452 116.391 82.8019 116.242C82.5586 116.094 82.3649 115.876 82.2454 115.618C82.1259 115.359 82.086 115.07 82.1307 114.789C82.1754 114.507 82.3027 114.245 82.4965 114.036C82.6903 113.827 82.9418 113.68 83.2192 113.614C83.4966 113.548 83.7872 113.566 84.0544 113.666C84.3215 113.765 84.5531 113.942 84.7197 114.173C84.9403 114.482 85.0305 114.865 84.9711 115.24C84.9116 115.614 84.7071 115.951 84.4018 116.176Z" fill="white"/>
</g>
<defs>
<clipPath id="clip0_1_22348">
<rect width="400" height="320" fill="white" transform="translate(0.5)"/>
</clipPath>
</defs>
</svg>
