<svg width="67" height="70" viewBox="0 0 67 70" fill="none" xmlns="http://www.w3.org/2000/svg">
<g id="Group 237809">
<g id="Group">
<path id="Vector" d="M59.465 46.089C41.8882 48.8852 25.2646 48.8852 7.68458 46.089C5.49321 45.7403 3.80957 43.987 3.50494 41.8002C1.92283 30.3842 1.92283 18.8052 3.50494 7.38588C3.80957 5.19914 5.49321 3.44583 7.68458 3.09713C25.2613 0.300958 41.8849 0.300958 59.465 3.09713C61.6563 3.44583 63.34 5.19914 63.6446 7.38588C65.2267 18.8019 65.2267 30.3809 63.6446 41.8002C63.34 43.987 61.6563 45.7403 59.465 46.089Z" fill="#F9AD6D" stroke="black" stroke-width="1.31846"/>
<g id="Group_2">
<path id="Vector_2" d="M26.665 11.7884V36.351C26.665 37.3873 27.8442 37.9902 28.6893 37.3873L45.9713 25.1044C46.6854 24.596 46.6854 23.5401 45.9713 23.0317L28.6893 10.7488C27.841 10.1459 26.665 10.7488 26.665 11.7851V11.7884Z" fill="white" stroke="black" stroke-width="1.31846"/>
<path id="Vector_3" opacity="0.2" d="M26.8403 12.3291L44.0682 24.5018L26.8403 36.8917C26.8403 37.928 28.0195 38.5309 28.8646 37.928L46.1466 25.6451C46.8607 25.1367 46.8607 24.0808 46.1466 23.5724L28.8646 11.2895C28.0163 10.6866 26.8403 11.2895 26.8403 12.3258V12.3291Z" fill="black"/>
<path id="Vector_4" d="M26.665 11.7884V36.351C26.665 37.3873 27.8442 37.9902 28.6893 37.3873L45.9713 25.1044C46.6854 24.596 46.6854 23.5401 45.9713 23.0317L28.6893 10.7488C27.841 10.1459 26.665 10.7488 26.665 11.7851V11.7884Z" stroke="black" stroke-width="1.31846"/>
</g>
</g>
<path id="Vector_5" d="M2.89957 59.2462H63.7041C64.7569 59.2462 65.6045 60.4226 65.6045 61.8825C65.6045 63.3425 64.7569 64.5201 63.7041 64.5201H2.89957C1.84677 64.5201 1 63.3437 1 61.8825C1 60.4214 1.84763 59.2462 2.89957 59.2462Z" fill="#F9AD6D" stroke="black" stroke-width="1.31846"/>
<path id="Vector_6" d="M16.3885 55.2911H18.3733C19.7484 55.2911 20.8555 56.3982 20.8555 57.7721V66.7074C20.8555 68.0825 19.7484 69.1885 18.3733 69.1885H16.3885C15.0134 69.1885 13.9062 68.0825 13.9062 66.7074V57.7721C13.9062 56.3971 15.0134 55.2911 16.3885 55.2911Z" fill="#67BD99" stroke="black" stroke-width="1.31846"/>
</g>
</svg>
