<svg width="24" height="24" viewBox="0 0 24 24" fill="none" xmlns="http://www.w3.org/2000/svg">
<g id="Menu/Home">
<path id="Vector 175" d="M3.28565 13.8182H3.81818V20C3.81818 20.5523 4.2659 21 4.81818 21H9.27273V16.1818C9.27273 15.6295 9.72044 15.1818 10.2727 15.1818H13.7273C14.2796 15.1818 14.7273 15.6295 14.7273 16.1818V21H19.1818C19.7341 21 20.1818 20.5523 20.1818 20V13.8182H20.7144C21.4244 13.8182 22 13.2426 22 12.5325C22 12.1916 21.8645 11.8645 21.6234 11.6234L13.4142 3.41421C12.6332 2.63317 11.3668 2.63316 10.5858 3.41421L2.37656 11.6234C2.13545 11.8645 2 12.1916 2 12.5325C2 13.2426 2.57561 13.8182 3.28565 13.8182Z" stroke="white" stroke-width="1.5" stroke-linejoin="round"/>
</g>
</svg>
