<svg width="179" height="28" viewBox="0 0 179 28" fill="none" xmlns="http://www.w3.org/2000/svg">
<g id="Group 237840">
<path id="uLesson 1" d="M49.6207 24.2616C43.9036 24.2616 43.4863 20.786 43.4863 17.0074V5.43203H48.1229V16.4995C48.1229 19.1658 48.576 20.3128 51.0857 20.3128C53.0724 20.3128 55.1291 19.3346 56.0353 18.8613V5.43203H60.6718V23.8562H56.0353V21.8652C54.7804 22.7438 52.3406 24.2616 49.6207 24.2616ZM66.526 23.8562V0H71.2669V20.1454H81.9678V23.8576H66.526V23.8562ZM93.7849 24.2616C87.7892 24.2616 83.9902 22.1696 83.9902 14.9485C83.9902 7.42305 87.9292 4.99487 93.2976 4.99487C98.8045 4.99487 101.036 8.50369 101.036 14.2748V15.895H88.6267C88.6267 19.9448 91.2409 20.6186 94.6225 20.6186C95.9475 20.6186 98.2128 20.18 99.7807 19.8756L100.512 23.3512C98.9431 23.823 96.399 24.2616 93.7849 24.2616ZM88.7311 12.8897H96.2604C96.2947 10.1225 95.1456 8.19926 92.8445 8.19926C90.5076 8.19926 88.9397 9.85267 88.7311 12.8897ZM110.377 24.2616C107.693 24.2616 105.566 23.924 103.964 23.4854L104.522 20.0098C106.508 20.3128 108.461 20.6172 109.924 20.6172C112.887 20.6172 113.759 19.74 113.759 18.7272C113.759 15.8921 104.173 17.0059 104.173 10.4933C104.173 6.78102 107.659 4.9588 111.632 4.9588C113.863 4.9588 115.884 5.3974 117.349 5.90381L116.582 9.24383C115.082 8.90622 113.653 8.56861 111.632 8.56861C109.505 8.56861 108.809 9.479 108.809 10.2552C108.809 13.1912 118.325 12.3804 118.325 18.4891C118.324 23.1146 113.549 24.2616 110.377 24.2616ZM127.596 24.2616C124.911 24.2616 122.785 23.924 121.182 23.4854L121.74 20.0098C123.727 20.3128 125.679 20.6172 127.142 20.6172C130.105 20.6172 130.977 19.74 130.977 18.7272C130.977 15.8921 121.391 17.0059 121.391 10.4933C121.391 6.78102 124.877 4.9588 128.85 4.9588C131.082 4.9588 133.102 5.3974 134.567 5.90381L133.8 9.24383C132.301 8.90622 130.871 8.56861 128.85 8.56861C126.724 8.56861 126.028 9.479 126.028 10.2552C126.028 13.1912 135.544 12.3804 135.544 18.4891C135.544 23.1146 130.769 24.2616 127.596 24.2616ZM147.708 24.2616C141.817 24.2616 138.507 20.685 138.507 14.8129C138.507 8.60468 142.341 4.96024 147.988 4.96024C154.333 4.96024 157.26 8.57149 157.26 14.6441C157.26 20.988 153.217 24.2616 147.708 24.2616ZM147.953 20.6518C151.647 20.6518 152.553 17.9856 152.553 14.6456C152.553 11.5075 151.647 8.53831 147.882 8.53831C144.188 8.53831 143.177 11.5075 143.177 14.6802C143.177 18.0866 144.328 20.6518 147.953 20.6518ZM161.546 23.8562V5.43203H166.183V7.38987C167.578 6.41167 169.913 4.96024 172.562 4.96024C178.383 4.96024 178.766 8.36806 178.766 12.1813V23.8562H174.165V12.6877C174.165 9.8873 173.608 8.87448 171.062 8.87448C169.146 8.87448 167.332 9.7185 166.183 10.3259V23.8576H161.546V23.8562Z" fill="white"/>
<g id="Group 3 Copy 2 1">
<path id="Subtract" fill-rule="evenodd" clip-rule="evenodd" d="M16.3774 4.12501C17.3968 2.21189 19.4609 0.901855 21.8321 0.901855H32.7489V23.3701H21.8306C17.161 23.3701 17.0609 27.7625 17.0556 27.9966L17.0555 28H16.2403H15.6919C15.6919 27.8095 15.6129 23.3701 10.9615 23.3701H0.0476911L0 22.7122V0.901855H10.9183C13.2894 0.901855 15.3536 2.21189 16.3774 4.12501ZM7.3878 12.2316C6.65008 11.7151 6.02264 11.125 5.50251 10.4585L4.23273 11.3573C4.64854 12.1725 5.23276 12.9934 5.98687 13.8172C6.7395 14.641 7.63669 15.3826 8.67695 16.0405C9.71721 16.6984 10.8871 17.2308 12.1867 17.6391C13.4863 18.0474 14.8902 18.2509 16.3984 18.2509C17.9067 18.2509 19.3106 18.0474 20.6102 17.6391C21.9097 17.2308 23.0797 16.6984 24.1199 16.0405C25.1587 15.3826 26.0559 14.641 26.81 13.8172C27.5626 12.9934 28.1483 12.1739 28.5641 11.3573L27.2899 10.4585C26.7698 11.1236 26.1408 11.7151 25.4046 12.2316C24.6669 12.7481 23.8651 13.1723 22.9992 13.5056C22.1333 13.8389 21.2182 14.0928 20.2569 14.2674C19.2957 14.4419 18.3284 14.53 17.3582 14.53H15.4342C14.464 14.53 13.4967 14.4419 12.5355 14.2674C11.5742 14.0928 10.6591 13.8389 9.79322 13.5056C8.92584 13.1723 8.12403 12.7481 7.3878 12.2316Z" fill="#7B7FDA"/>
</g>
</g>
</svg>
