<svg width="28" height="28" viewBox="0 0 28 28" fill="none" xmlns="http://www.w3.org/2000/svg">
<g id="cc">
<path id="Vector" d="M11.1772 16.2566L10.8791 15.8552C11.0257 15.7464 11.1925 15.6678 11.3698 15.6241C11.5471 15.5803 11.7313 15.5724 11.9117 15.6006C12.0921 15.6289 12.2651 15.6928 12.4205 15.7886L12.1581 16.2142L12.4205 15.7886C12.5759 15.8844 12.7107 16.0102 12.817 16.1587C12.9233 16.3072 12.9989 16.4753 13.0395 16.6534L12.5521 16.7645L13.0395 16.6534C13.0801 16.8314 13.0849 17.0157 13.0535 17.1956C13.0221 17.3755 12.9551 17.5473 12.8566 17.701C12.7593 17.8529 12.633 17.9842 12.485 18.0873C11.7805 18.5971 10.9335 18.8727 10.0638 18.875L10.0625 18.875C7.44096 18.875 5.625 16.5102 5.625 14C5.625 11.4898 7.44096 9.125 10.0625 9.125C11.0114 9.125 11.879 9.4513 12.5835 9.9851L12.5835 9.98513C12.8741 10.2054 13.0654 10.5321 13.1151 10.8934C13.1649 11.2546 13.0691 11.6209 12.8489 11.9115C12.6286 12.2021 12.3019 12.3934 11.9406 12.4431C11.5794 12.4929 11.2131 12.3971 10.9225 12.1769L10.9171 12.1728L10.9172 12.1728C10.6723 11.982 10.3713 11.8773 10.0609 11.875C9.28919 11.8761 8.375 12.6558 8.375 14C8.375 15.3444 9.28949 16.1242 10.0613 16.125C10.3564 16.1233 10.6434 16.0283 10.8813 15.8536L11.1772 16.2566ZM11.1772 16.2566C11.2705 16.1873 11.3767 16.1373 11.4895 16.1095L11.1772 16.2566ZM19.9272 16.2566L19.6313 15.8536C19.3934 16.0283 19.1064 16.1233 18.8113 16.125C18.0395 16.1242 17.125 15.3444 17.125 14C17.125 12.6558 18.0392 11.8761 18.8109 11.875C19.1213 11.8773 19.4223 11.982 19.6672 12.1728L19.6671 12.1728L19.6725 12.1769C19.8164 12.2859 19.9804 12.3656 20.1551 12.4113C20.3298 12.457 20.5118 12.4678 20.6906 12.4431C20.8695 12.4185 21.0418 12.3589 21.1976 12.2676C21.3535 12.1764 21.4898 12.0554 21.5989 11.9115C21.7079 11.7676 21.7876 11.6036 21.8333 11.4289C21.879 11.2542 21.8898 11.0722 21.8651 10.8934L21.3698 10.9616L21.8651 10.8934C21.8405 10.7145 21.7809 10.5422 21.6897 10.3864L21.2581 10.639L21.6896 10.3864C21.5984 10.2305 21.4774 10.0942 21.3335 9.98513L21.3335 9.9851C20.629 9.4513 19.7614 9.125 18.8125 9.125C16.191 9.125 14.375 11.4898 14.375 14C14.375 16.5102 16.191 18.875 18.8125 18.875L18.8138 18.875C19.6835 18.8727 20.5304 18.5971 21.2349 18.0873C21.383 17.9842 21.5093 17.8529 21.6066 17.701L21.1857 17.4312L21.6066 17.701C21.7051 17.5473 21.7721 17.3755 21.8035 17.1956C21.8349 17.0157 21.8301 16.8314 21.7895 16.6534C21.749 16.4753 21.6733 16.3072 21.567 16.1587C21.4607 16.0102 21.3259 15.8844 21.1705 15.7886L20.9081 16.2142L21.1705 15.7886C21.0151 15.6928 20.8421 15.6289 20.6617 15.6006C20.4813 15.5724 20.2971 15.5803 20.1198 15.6241C19.9425 15.6678 19.7757 15.7464 19.6291 15.8552L19.9272 16.2566ZM19.9272 16.2566C20.0205 16.1873 20.1267 16.1373 20.2395 16.1095L18.8125 11.375C17.71 11.375 16.625 12.4364 16.625 14C16.625 15.5636 17.71 16.625 18.8125 16.625C19.2137 16.6231 19.6039 16.4941 19.9272 16.2566ZM3.25682 5.00682C3.90148 4.36216 4.77582 4 5.6875 4H22.3125C23.2242 4 24.0985 4.36216 24.7432 5.00682C25.3878 5.65148 25.75 6.52582 25.75 7.4375V20.5625C25.75 21.4742 25.3878 22.3485 24.7432 22.9932C24.0985 23.6378 23.2242 24 22.3125 24H5.6875C4.77582 24 3.90148 23.6378 3.25682 22.9932C2.61216 22.3485 2.25 21.4742 2.25 20.5625V7.4375C2.25 6.52582 2.61216 5.65148 3.25682 5.00682Z" fill="white" stroke="white"/>
</g>
</svg>
