<svg width="70" height="70" viewBox="0 0 70 70" fill="none" xmlns="http://www.w3.org/2000/svg">
<g id="pause">
<g id="Mask Group">
<mask id="mask0_1_20053" style="mask-type:alpha" maskUnits="userSpaceOnUse" x="0" y="0" width="70" height="70">
<path id="Rectangle 2" d="M0 0H70V70H0V0Z" fill="#C4C4C4"/>
</mask>
<g mask="url(#mask0_1_20053)">
<g id="Group 18">
<path id="Vector" d="M28.9804 68.1551C54.1008 68.6189 74.01 45.385 67.8175 25.3687C61.6249 5.35237 20.7719 -2.73615 6.50624 14.3256C-8.21521 32.0293 8.22768 67.8099 28.9804 68.1551Z" fill="white"/>
</g>
</g>
</g>
<g id="Group 34">
<g id="stop">
<path id="Rectangle" d="M37.9268 29.7318C37.9268 28.4388 38.9749 27.3906 40.2679 27.3906C41.5609 27.3906 42.609 28.4388 42.609 29.7318V41.4374C42.609 42.7304 41.5609 43.7786 40.2679 43.7786C38.9749 43.7786 37.9268 42.7304 37.9268 41.4374V29.7318Z" fill="#EA7052"/>
<path id="Rectangle_2" d="M27.3916 29.7318C27.3916 28.4388 28.4398 27.3906 29.7327 27.3906C31.0257 27.3906 32.0739 28.4388 32.0739 29.7318V41.4374C32.0739 42.7304 31.0257 43.7786 29.7327 43.7786C28.4398 43.7786 27.3916 42.7304 27.3916 41.4374V29.7318Z" fill="#EA7052"/>
</g>
</g>
</g>
</svg>
