<svg width="28" height="28" viewBox="0 0 28 28" fill="none" xmlns="http://www.w3.org/2000/svg">
<g id="share">
<g id="Group 2">
<g id="Group">
<path id="Vector" d="M21.1692 10.0435C23.2178 10.0435 24.8785 8.38285 24.8785 6.33427C24.8785 4.2857 23.2178 2.625 21.1692 2.625C19.1207 2.625 17.46 4.2857 17.46 6.33427C17.46 8.38285 19.1207 10.0435 21.1692 10.0435Z" stroke="white" stroke-width="2" stroke-miterlimit="10" stroke-linejoin="round"/>
<path id="Vector_2" d="M21.1692 25.3748C23.2178 25.3748 24.8785 23.7141 24.8785 21.6656C24.8785 19.617 23.2178 17.9563 21.1692 17.9563C19.1207 17.9563 17.46 19.617 17.46 21.6656C17.46 23.7141 19.1207 25.3748 21.1692 25.3748Z" stroke="white" stroke-width="2" stroke-miterlimit="10" stroke-linejoin="round"/>
</g>
<path id="Vector_3" d="M6.33427 17.71C8.38285 17.71 10.0435 16.0493 10.0435 14.0008C10.0435 11.9522 8.38285 10.2915 6.33427 10.2915C4.2857 10.2915 2.625 11.9522 2.625 14.0008C2.625 16.0493 4.2857 17.71 6.33427 17.71Z" stroke="white" stroke-width="2" stroke-miterlimit="10" stroke-linejoin="round"/>
<path id="Vector_4" d="M9.38672 15.6987L18.0714 20.2389" stroke="white" stroke-width="2" stroke-miterlimit="10" stroke-linejoin="round"/>
<path id="Vector_5" d="M18.0714 7.91687L9.38672 12.3433" stroke="white" stroke-width="2" stroke-miterlimit="10" stroke-linejoin="round"/>
</g>
</g>
</svg>
